<svg aria-hidden="true" style="position: absolute; width: 0; height: 0; overflow: hidden;" version="1.1" xmlns="http://www.w3.org/2000/svg" xmlns:xlink="http://www.w3.org/1999/xlink">
<defs>
<symbol id="icon-star" viewBox="0 0 27 32">
<path d="M13.019 0.867l-1.504 9.584c-0.288 1.835-1.638 3.331-3.434 3.806l-7.531 1.991 7.582 1.696c1.809 0.405 3.199 1.846 3.537 3.67l1.767 9.52 1.504-9.584c0.288-1.836 1.638-3.331 3.435-3.806l7.531-1.991-7.582-1.696c-1.809-0.405-3.199-1.847-3.537-3.67l-1.767-9.52z"></path>
</symbol>
<symbol id="icon-arrow" viewBox="0 0 40 32">
<path d="M26.637 14.4l-8.534-8.582 2.25-2.263 12.374 12.445-12.374 12.444-2.25-2.263 8.534-8.582h-19.364v-3.2h19.364z"></path>
</symbol>
<symbol id="icon-client" viewBox="0 0 24 32">
<path d="M10.4 19.406v8.822h2.971v-8.822c5.863 0.731 10.4 5.733 10.4 11.794h-23.771c0-6.061 4.537-11.063 10.4-11.794zM11.886 17.829c-4.925 0-8.914-3.989-8.914-8.914s3.989-8.914 8.914-8.914c4.925 0 8.914 3.989 8.914 8.914s-3.989 8.914-8.914 8.914z"></path>
</symbol>
<symbol id="icon-hand-shake" viewBox="0 0 31 32">
<path d="M15.194 1.235c1.523-1.015 3.501-1.036 5.045-0.054l6.402 4.074h2.633c0.851 0 1.541 0.69 1.541 1.541v13.867c0 0.851-0.69 1.541-1.541 1.541h-2.341c0.092 1.46-0.596 2.943-1.979 3.773l-7.848 4.709c-0.991 0.594-2.221 0.581-3.191-0.012-1.079 0.954-2.74 1.059-3.945 0.112l-7.921-6.224c-1.181-0.928-1.479-2.513-0.87-3.769-0.745-0.584-1.18-1.478-1.18-2.425v-11.572c0-0.851 0.69-1.541 1.541-1.541h7.622l6.031-4.021zM3.348 18.575l1.066-0.933c1.895-1.659 4.77-1.494 6.464 0.369l4.163 4.58c1.34 1.474 1.584 3.639 0.61 5.373l7.717-4.63c0.434-0.26 0.59-0.78 0.429-1.218l-6.821-9.549c-0.383-0.536-1.065-0.77-1.697-0.58l-3.829 1.149c-1.629 0.489-3.394 0.043-4.597-1.159l-0.451-0.451c-0.875-0.875-1.101-2.121-0.733-3.189h-2.587v10.032l0.266 0.207zM18.585 3.781c-0.515-0.328-1.174-0.321-1.682 0.018l-8.322 5.548 0.451 0.451c0.401 0.401 0.989 0.549 1.532 0.386l3.829-1.149c1.894-0.568 3.94 0.131 5.090 1.741l5.961 8.346h2.289v-10.785h-1.092c-0.586 0-1.16-0.167-1.654-0.482l-6.402-4.074zM6.443 19.961l-2.489 2.178 7.921 6.224 1.085-1.898c0.331-0.58 0.252-1.307-0.198-1.801l-4.163-4.58c-0.565-0.621-1.523-0.676-2.155-0.123z"></path>
</symbol>
<symbol id="icon-stratagy" viewBox="0 0 33 32">
<path d="M12.855 8.889h7.111v-2.667c0-3.436 2.786-6.222 6.222-6.222s6.222 2.786 6.222 6.222c0 3.436-2.786 6.222-6.222 6.222h-2.667v7.111h2.667c3.436 0 6.222 2.786 6.222 6.222s-2.786 6.222-6.222 6.222-6.222-2.786-6.222-6.222v-2.667h-7.111v2.667c0 3.437-2.786 6.222-6.222 6.222s-6.222-2.786-6.222-6.222c0-3.436 2.786-6.222 6.222-6.222h2.667v-7.111h-2.667c-3.436 0-6.222-2.786-6.222-6.222s2.786-6.222 6.222-6.222c3.436 0 6.222 2.786 6.222 6.222v2.667zM9.299 8.889v-2.667c0-1.473-1.194-2.667-2.667-2.667s-2.667 1.194-2.667 2.667c0 1.473 1.194 2.667 2.667 2.667h2.667zM9.299 23.111h-2.667c-1.473 0-2.667 1.194-2.667 2.667s1.194 2.667 2.667 2.667 2.667-1.194 2.667-2.667v-2.667zM23.521 8.889h2.667c1.473 0 2.667-1.194 2.667-2.667s-1.194-2.667-2.667-2.667c-1.473 0-2.667 1.194-2.667 2.667v2.667zM23.521 23.111v2.667c0 1.473 1.194 2.667 2.667 2.667s2.667-1.194 2.667-2.667c0-1.473-1.194-2.667-2.667-2.667h-2.667zM12.855 12.444v7.111h7.111v-7.111h-7.111z"></path>
</symbol>
<symbol id="icon-nextflows" viewBox="0 0 190 32">
<path d="M11.205 0.347h-11.204v6.132l23.090 24.52h5.775v-11.878l-17.661-18.774z"></path>
<path d="M28.865 0.347h-8.66v9.196h8.66v-9.196z"></path>
<path d="M11.546 18.74h-11.546l11.546 12.261v-12.261z"></path>
<path d="M39.91 24.838v-18.325h2.927l9.839 12.963-1.574 0.369v-13.332h3.813v18.325h-2.952l-9.667-13.061 1.427-0.369v13.43h-3.812z"></path>
<path d="M58.165 24.838v-18.325h12.323v3.321h-8.511v4.157h8.019v3.321h-8.019v4.206h8.511v3.321h-12.323z"></path>
<path d="M71.297 24.838l6.002-9.175-6.002-9.15h4.378l4.821 7.33h-2.14l4.796-7.33h4.378l-5.977 9.15 5.977 9.175h-4.378l-4.796-7.354 2.14 0.025-4.821 7.33h-4.378z"></path>
<path d="M92.712 24.838v-15.004h-4.649v-3.321h13.036v3.321h-4.575v15.004h-3.813z"></path>
<path d="M102.988 24.838v-18.325h12.544v3.321h-8.732v4.649h7.502v3.321h-7.502v7.035h-3.812z"></path>
<path d="M117.424 24.838v-18.325h3.812v15.004h7.748v3.321h-11.561z"></path>
<path d="M139.569 25.133c-1.377 0-2.656-0.238-3.837-0.713s-2.213-1.14-3.099-1.992c-0.869-0.869-1.55-1.878-2.042-3.026-0.493-1.148-0.738-2.394-0.738-3.739s0.238-2.591 0.714-3.739c0.492-1.148 1.172-2.148 2.041-3.001 0.886-0.853 1.919-1.517 3.1-1.992s2.468-0.713 3.861-0.713c1.394 0 2.682 0.238 3.862 0.713s2.205 1.14 3.074 1.992c0.885 0.853 1.566 1.853 2.042 3.001 0.492 1.148 0.738 2.394 0.738 3.739s-0.246 2.591-0.738 3.739c-0.492 1.148-1.181 2.156-2.066 3.026-0.869 0.853-1.893 1.517-3.074 1.992s-2.46 0.713-3.838 0.713zM139.569 21.69c0.836 0 1.607-0.148 2.313-0.443 0.721-0.295 1.353-0.705 1.894-1.23 0.541-0.541 0.959-1.181 1.254-1.919 0.294-0.738 0.443-1.55 0.443-2.435s-0.148-1.689-0.443-2.411c-0.295-0.738-0.714-1.377-1.254-1.918-0.542-0.541-1.173-0.951-1.894-1.23-0.705-0.295-1.476-0.443-2.313-0.443s-1.615 0.148-2.336 0.443c-0.705 0.279-1.329 0.689-1.87 1.23s-0.959 1.181-1.254 1.918c-0.295 0.722-0.443 1.525-0.443 2.411s0.147 1.697 0.443 2.435c0.295 0.738 0.714 1.377 1.254 1.919 0.541 0.525 1.165 0.935 1.87 1.23 0.721 0.295 1.5 0.443 2.336 0.443z"></path>
<path d="M154.953 24.838l-4.797-18.325h4.132l3.616 15.348h-1.107l3.813-15.348h3.935l3.812 15.348h-1.106l3.615-15.348h4.132l-4.796 18.325h-4.428l-3.837-14.758h1.279l-3.837 14.758h-4.428z"></path>
<path d="M183.324 25.133c-1.148 0-2.23-0.205-3.247-0.615-0.999-0.426-1.869-1.025-2.607-1.796-0.721-0.771-1.263-1.681-1.623-2.73l3.124-1.402c0.459 1 1.090 1.787 1.893 2.361 0.82 0.574 1.722 0.861 2.706 0.861 0.525 0 0.975-0.082 1.353-0.246s0.672-0.385 0.885-0.664c0.213-0.295 0.32-0.64 0.32-1.033 0-0.426-0.131-0.787-0.394-1.082-0.262-0.312-0.672-0.558-1.23-0.738l-3.591-1.181c-1.459-0.476-2.558-1.148-3.296-2.017-0.737-0.886-1.106-1.943-1.106-3.173 0-1.082 0.262-2.033 0.787-2.853 0.541-0.82 1.286-1.459 2.238-1.919 0.967-0.459 2.075-0.689 3.321-0.689 1.099 0 2.115 0.189 3.050 0.566 0.935 0.377 1.739 0.91 2.411 1.599 0.689 0.689 1.205 1.517 1.55 2.484l-3.1 1.402c-0.343-0.853-0.861-1.517-1.549-1.992-0.689-0.492-1.476-0.738-2.362-0.738-0.509 0-0.959 0.082-1.353 0.246s-0.698 0.402-0.91 0.713c-0.213 0.295-0.32 0.64-0.32 1.033 0 0.426 0.139 0.804 0.418 1.132 0.278 0.312 0.697 0.558 1.254 0.738l3.517 1.131c1.476 0.476 2.575 1.14 3.296 1.992 0.738 0.853 1.107 1.894 1.107 3.124 0 1.066-0.278 2.017-0.836 2.853-0.558 0.82-1.328 1.468-2.313 1.943-0.967 0.459-2.098 0.689-3.394 0.689z"></path>
</symbol>
<symbol id="icon-globalchart" viewBox="0 0 190 32">
<path d="M13.133 0.695l-13.133 8.052v6.953l13.133-8.052h8.244v-6.953h-8.244z"></path>
<path d="M13.133 24.187l-13.133-8.052v6.953l13.133 8.052v-6.953z"></path>
<path d="M24.974 31.138l13.133-8.052v-6.953l-13.133 8.052h-8.244v6.953h8.244z"></path>
<path d="M24.974 7.646l13.133 8.052v-6.953l-13.133-8.052v6.953z"></path>
<path d="M56.289 27.623c-1.511 0-2.916-0.294-4.216-0.883-1.281-0.589-2.409-1.401-3.384-2.436-0.956-1.056-1.702-2.294-2.237-3.715s-0.803-2.985-0.803-4.69c0-1.685 0.258-3.238 0.774-4.66 0.535-1.442 1.281-2.68 2.237-3.715 0.956-1.056 2.074-1.868 3.356-2.436 1.281-0.589 2.686-0.883 4.216-0.883 1.51 0 2.858 0.274 4.044 0.822 1.204 0.548 2.218 1.269 3.040 2.162 0.822 0.873 1.415 1.827 1.778 2.863l-3.011 1.553c-0.44-1.239-1.166-2.233-2.18-2.985-1.013-0.772-2.237-1.157-3.671-1.157-1.415 0-2.667 0.355-3.757 1.066s-1.941 1.695-2.552 2.954c-0.593 1.259-0.889 2.731-0.889 4.416s0.306 3.167 0.918 4.446c0.631 1.259 1.491 2.243 2.581 2.954 1.090 0.69 2.342 1.036 3.757 1.036 1.185 0 2.266-0.254 3.241-0.761 0.994-0.528 1.788-1.259 2.38-2.193 0.593-0.954 0.889-2.061 0.889-3.32v-1.553l1.52 1.462h-8.087v-3.045h9.923v2.132c0 1.665-0.268 3.157-0.803 4.477-0.535 1.299-1.262 2.406-2.18 3.319s-1.969 1.604-3.155 2.071-2.428 0.7-3.728 0.7z"></path>
<path d="M67.502 27.258v-23.054h3.241v23.054h-3.241z"></path>
<path d="M80.225 27.623c-1.491 0-2.858-0.376-4.101-1.127-1.224-0.751-2.199-1.777-2.925-3.076s-1.090-2.771-1.090-4.416c0-1.665 0.363-3.137 1.090-4.416 0.727-1.299 1.702-2.315 2.925-3.045 1.224-0.751 2.591-1.127 4.101-1.127 1.529 0 2.897 0.376 4.101 1.127 1.224 0.731 2.189 1.746 2.897 3.045 0.727 1.279 1.090 2.751 1.090 4.416s-0.363 3.147-1.090 4.446c-0.727 1.299-1.702 2.325-2.925 3.076-1.224 0.731-2.581 1.096-4.072 1.096zM80.225 24.425c0.918 0 1.73-0.233 2.438-0.7s1.262-1.106 1.663-1.919c0.421-0.832 0.631-1.766 0.631-2.802s-0.21-1.959-0.631-2.771c-0.401-0.812-0.956-1.452-1.663-1.919s-1.52-0.7-2.438-0.7c-0.899 0-1.711 0.233-2.438 0.7-0.707 0.467-1.271 1.107-1.692 1.919-0.401 0.812-0.602 1.736-0.602 2.771s0.201 1.969 0.602 2.802c0.421 0.812 0.985 1.452 1.692 1.919 0.727 0.467 1.539 0.7 2.438 0.7z"></path>
<path d="M97.972 27.623c-1.205 0-2.304-0.264-3.298-0.792-0.975-0.528-1.73-1.289-2.266-2.284l0.373-0.64v3.35h-3.097v-23.054h3.241v9.989l-0.516-0.792c0.574-0.934 1.338-1.665 2.294-2.193s2.046-0.792 3.269-0.792c1.472 0 2.791 0.376 3.958 1.127 1.186 0.751 2.113 1.777 2.782 3.076 0.688 1.299 1.032 2.761 1.032 4.386s-0.344 3.086-1.032 4.386c-0.669 1.299-1.587 2.335-2.753 3.106-1.166 0.751-2.495 1.127-3.986 1.127zM97.656 24.425c0.918 0 1.73-0.233 2.438-0.7s1.262-1.106 1.663-1.919c0.421-0.832 0.631-1.766 0.631-2.802s-0.21-1.959-0.631-2.771c-0.401-0.812-0.956-1.452-1.663-1.919s-1.52-0.7-2.438-0.7c-0.899 0-1.711 0.233-2.438 0.7-0.707 0.467-1.271 1.107-1.692 1.919-0.402 0.812-0.602 1.736-0.602 2.771s0.201 1.969 0.602 2.802c0.421 0.812 0.985 1.452 1.692 1.919 0.727 0.467 1.539 0.7 2.438 0.7z"></path>
<path d="M111.75 27.623c-1.052 0-1.98-0.193-2.782-0.579-0.784-0.406-1.396-0.954-1.836-1.645-0.439-0.71-0.66-1.543-0.66-2.497 0-0.893 0.182-1.695 0.545-2.406 0.383-0.711 0.966-1.31 1.749-1.797 0.784-0.487 1.769-0.832 2.955-1.035l5.391-0.944v2.71l-4.761 0.883c-0.86 0.162-1.491 0.457-1.892 0.883-0.402 0.406-0.603 0.934-0.603 1.584 0 0.629 0.22 1.147 0.659 1.553 0.46 0.386 1.042 0.579 1.75 0.579 0.879 0 1.644-0.203 2.293-0.609 0.67-0.406 1.186-0.944 1.549-1.614 0.364-0.69 0.545-1.452 0.545-2.284v-4.233c0-0.812-0.287-1.472-0.86-1.98-0.555-0.528-1.3-0.792-2.238-0.792-0.86 0-1.615 0.244-2.266 0.731-0.63 0.467-1.099 1.076-1.405 1.827l-2.695-1.431c0.287-0.812 0.755-1.523 1.405-2.132 0.651-0.629 1.406-1.117 2.266-1.462 0.88-0.345 1.807-0.518 2.782-0.518 1.223 0 2.304 0.244 3.241 0.731 0.957 0.487 1.693 1.167 2.209 2.040 0.534 0.853 0.802 1.848 0.802 2.985v11.085h-3.097v-2.985l0.659 0.091c-0.364 0.67-0.832 1.249-1.405 1.736-0.555 0.487-1.196 0.863-1.922 1.127-0.707 0.264-1.501 0.396-2.38 0.396z"></path>
<path d="M121.891 27.258v-23.054h3.242v23.054h-3.242z"></path>
<path d="M134.499 27.623c-1.549 0-2.925-0.376-4.129-1.127-1.186-0.772-2.132-1.807-2.839-3.106-0.689-1.299-1.033-2.771-1.033-4.416 0-1.624 0.343-3.086 1.033-4.386 0.688-1.299 1.634-2.315 2.839-3.045 1.204-0.751 2.58-1.127 4.129-1.127 1.052 0 2.036 0.203 2.955 0.609 0.917 0.386 1.711 0.924 2.38 1.614 0.688 0.69 1.195 1.492 1.52 2.406l-2.839 1.401c-0.324-0.853-0.85-1.533-1.577-2.040-0.708-0.528-1.52-0.792-2.438-0.792-0.879 0-1.673 0.233-2.38 0.7-0.689 0.447-1.233 1.086-1.635 1.919-0.401 0.812-0.603 1.736-0.603 2.771s0.202 1.969 0.603 2.802c0.402 0.812 0.946 1.452 1.635 1.919 0.707 0.467 1.501 0.7 2.38 0.7 0.938 0 1.749-0.254 2.438-0.761 0.707-0.528 1.233-1.228 1.577-2.101l2.839 1.431c-0.306 0.873-0.803 1.665-1.491 2.375-0.669 0.69-1.462 1.238-2.381 1.645-0.917 0.406-1.911 0.609-2.982 0.609z"></path>
<path d="M142.729 27.258v-23.054h3.241v9.806l-0.516-0.426c0.383-1.035 0.995-1.817 1.836-2.345 0.842-0.548 1.817-0.822 2.926-0.822 1.147 0 2.16 0.264 3.040 0.792 0.879 0.528 1.567 1.259 2.064 2.193s0.747 2 0.747 3.198v10.659h-3.213v-9.715c0-0.832-0.153-1.533-0.459-2.101-0.287-0.589-0.688-1.035-1.204-1.34-0.516-0.325-1.109-0.487-1.778-0.487-0.651 0-1.243 0.162-1.778 0.487-0.516 0.305-0.927 0.751-1.233 1.34-0.287 0.589-0.431 1.289-0.431 2.101v9.715h-3.241z"></path>
<path d="M162.386 27.623c-1.051 0-1.979-0.193-2.782-0.579-0.784-0.406-1.395-0.954-1.835-1.645-0.441-0.71-0.66-1.543-0.66-2.497 0-0.893 0.181-1.695 0.545-2.406 0.383-0.711 0.965-1.31 1.749-1.797s1.769-0.832 2.954-1.035l5.392-0.944v2.71l-4.761 0.883c-0.861 0.162-1.491 0.457-1.893 0.883-0.401 0.406-0.602 0.934-0.602 1.584 0 0.629 0.22 1.147 0.659 1.553 0.459 0.386 1.042 0.579 1.749 0.579 0.88 0 1.645-0.203 2.294-0.609 0.67-0.406 1.186-0.944 1.549-1.614 0.364-0.69 0.545-1.452 0.545-2.284v-4.233c0-0.812-0.287-1.472-0.861-1.98-0.554-0.528-1.3-0.792-2.237-0.792-0.86 0-1.615 0.244-2.266 0.731-0.63 0.467-1.099 1.076-1.405 1.827l-2.697-1.431c0.287-0.812 0.755-1.523 1.406-2.132 0.65-0.629 1.405-1.117 2.266-1.462 0.879-0.345 1.807-0.518 2.782-0.518 1.223 0 2.304 0.244 3.241 0.731 0.956 0.487 1.692 1.167 2.208 2.040 0.535 0.853 0.803 1.848 0.803 2.985v11.085h-3.098v-2.985l0.66 0.091c-0.364 0.67-0.832 1.249-1.406 1.736-0.554 0.487-1.195 0.863-1.921 1.127-0.707 0.264-1.501 0.396-2.381 0.396z"></path>
<path d="M172.528 27.258v-16.476h3.098v3.32l-0.287-0.487c0.345-1.076 0.898-1.848 1.663-2.315 0.765-0.487 1.683-0.731 2.754-0.731h0.946v3.137h-1.348c-1.071 0-1.94 0.355-2.61 1.066-0.65 0.69-0.975 1.685-0.975 2.985v9.502h-3.241z"></path>
<path d="M188.117 27.441c-1.626 0-2.887-0.487-3.786-1.462-0.899-0.974-1.348-2.345-1.348-4.111v-7.979h-2.724v-3.106h0.43c0.726 0 1.291-0.223 1.693-0.67 0.401-0.447 0.602-1.056 0.602-1.827v-1.279h3.241v3.776h3.527v3.106h-3.527v7.827c0 0.568 0.086 1.056 0.258 1.462 0.173 0.386 0.45 0.69 0.832 0.914 0.383 0.203 0.88 0.305 1.491 0.305 0.154 0 0.325-0.010 0.516-0.030s0.373-0.041 0.545-0.061v2.954c-0.268 0.041-0.564 0.081-0.889 0.122-0.325 0.041-0.612 0.061-0.861 0.061z"></path>
</symbol>
<symbol id="icon-starsup" viewBox="0 0 129 32">
<path d="M28.503 0.684h-13.599c-0.703 0-1.066 0.841-0.584 1.353l12.796 13.589c0.498 0.529 1.387 0.176 1.387-0.55v-14.391z"></path>
<path d="M21.077 9.144h-19.469c-1.407 0-2.133 1.681-1.168 2.705l17.864 18.97c0.996 1.058 2.774 0.353 2.774-1.1v-20.575z"></path>
<path d="M21.078 20.009l-0-10.866-10.187-0.001c-0.507 2.773 0.189 5.795 2.459 8.206 2.189 2.325 5.068 3.092 7.728 2.661z"></path>
<path d="M34.923 20.818c0 3.277 2.482 5.507 6.395 5.507 3.882 0 6.586-2.095 6.586-5.473 0-2.568-1.336-3.852-3.977-4.494l-2.832-0.71c-1.336-0.338-2.036-0.946-2.036-1.892 0-1.25 0.891-1.993 2.418-1.993 1.495 0 2.386 0.912 2.418 2.331h3.691c-0.032-3.244-2.418-5.406-5.95-5.406-3.627 0-6.236 1.96-6.236 5.237 0 2.669 1.368 4.088 4.2 4.764l2.832 0.71c1.4 0.338 1.814 0.946 1.814 1.791 0 1.216-0.986 1.993-2.8 1.993-1.782 0-2.8-0.912-2.832-2.365h-3.691z"></path>
<path d="M54.216 25.886v-13.244h3.054v-3.446h-3.054v-5.203h-3.882v5.203h-3.023v3.446h3.023v13.244h3.882z"></path>
<path d="M62.279 26.325c2.45 0 4.582-1.182 5.25-2.906l0.286 2.466h3.404v-10.136c0-4.629-2.609-7.061-6.841-7.061-4.263 0-7.063 2.365-7.063 5.98h3.309c0-1.757 1.273-2.77 3.564-2.77 1.973 0 3.245 0.912 3.245 3.176v0.372l-4.709 0.372c-3.723 0.304-5.822 2.23-5.822 5.305 0 3.142 2.036 5.203 5.377 5.203zM63.552 23.217c-1.75 0-2.704-0.743-2.704-2.264 0-1.352 0.923-2.196 3.341-2.433l3.277-0.27v0.878c0 2.568-1.527 4.088-3.913 4.088z"></path>
<path d="M82.908 9.128c-0.636-0.169-1.177-0.236-1.719-0.236-2.1 0-3.595 1.115-4.263 2.77l-0.223-2.433h-3.659v16.657h3.881v-8.109c0-3.244 1.75-4.832 4.55-4.832h1.432v-3.818z"></path>
<path d="M82.337 20.818c0 3.277 2.481 5.507 6.395 5.507 3.881 0 6.586-2.095 6.586-5.473 0-2.568-1.337-3.852-3.977-4.494l-2.831-0.71c-1.337-0.338-2.036-0.946-2.036-1.892 0-1.25 0.891-1.993 2.418-1.993 1.495 0 2.386 0.912 2.418 2.331h3.69c-0.031-3.244-2.418-5.406-5.95-5.406-3.627 0-6.236 1.96-6.236 5.237 0 2.669 1.368 4.088 4.2 4.764l2.831 0.71c1.4 0.338 1.814 0.946 1.814 1.791 0 1.216-0.986 1.993-2.8 1.993-1.782 0-2.8-0.912-2.832-2.365h-3.69z"></path>
<path d="M106.944 9.196v8.751c0 3.176-1.177 4.696-3.627 4.696-2.164 0-3.341-1.284-3.341-4.46v-8.987h-3.881v10.44c0 4.088 2.132 6.69 5.759 6.69 2.1 0 4.136-1.081 5.091-2.669l0.287 2.23h3.595v-16.69h-3.881z"></path>
<path d="M112.847 30.456h3.881v-6.799c0.986 1.689 3.023 2.669 5.377 2.669 4.677 0 7.35-3.784 7.35-8.987 0-5.237-2.927-8.649-7.35-8.649-2.386 0-4.455 1.115-5.409 3.041l-0.255-2.534h-3.595v21.26zM116.76 17.541c0-3.007 1.75-5.102 4.423-5.102 2.736 0 4.359 2.128 4.359 5.102s-1.623 5.068-4.359 5.068c-2.673 0-4.423-2.061-4.423-5.068z"></path>
</symbol>
<symbol id="icon-bestbank" viewBox="0 0 129 32">
<path d="M10.74 19.459c3.954 0 7.16-3.404 7.16-7.603s-3.206-7.603-7.16-7.603h-7.16v7.603c0 4.199 3.206 7.603 7.16 7.603zM21.48 11.855c0 6.299-4.808 11.404-10.74 11.404s-10.74-5.106-10.74-11.405v-11.405h10.74c5.931 0 10.74 5.106 10.74 11.405z"></path>
<path d="M10.74 27.67c3.954 0 7.16-3.404 7.16-7.603s-3.206-7.603-7.16-7.603h-7.16v7.603c0 4.199 3.206 7.603 7.16 7.603zM21.479 20.067c0 6.299-4.808 11.405-10.74 11.405s-10.74-5.106-10.74-11.404v-11.405h10.74c5.931 0 10.74 5.106 10.74 11.405z"></path>
<path d="M31.559 25.294v-18.661h7.407c1.164 0 2.154 0.217 2.972 0.651 0.833 0.417 1.47 1.019 1.911 1.804 0.456 0.768 0.684 1.703 0.684 2.805 0 0.852-0.22 1.653-0.66 2.405-0.425 0.735-1.109 1.344-2.052 1.829v-1.578c0.865 0.351 1.549 0.785 2.052 1.303s0.857 1.094 1.061 1.728c0.204 0.635 0.307 1.303 0.307 2.004 0 1.787-0.558 3.189-1.675 4.208-1.101 1.002-2.634 1.503-4.6 1.503h-7.407zM34.767 22.289h4.529c0.833 0 1.494-0.242 1.981-0.726 0.503-0.501 0.755-1.161 0.755-1.979s-0.252-1.478-0.755-1.979c-0.487-0.501-1.148-0.752-1.981-0.752h-4.529v5.436zM34.767 13.872h4.364c0.66 0 1.187-0.2 1.58-0.601 0.393-0.417 0.59-0.952 0.59-1.603s-0.197-1.169-0.59-1.553c-0.393-0.384-0.92-0.576-1.58-0.576h-4.364v4.333z"></path>
<path d="M52.22 25.595c-1.321 0-2.477-0.317-3.467-0.952s-1.761-1.495-2.312-2.58c-0.55-1.085-0.826-2.288-0.826-3.607 0-1.369 0.275-2.58 0.826-3.632 0.566-1.069 1.329-1.912 2.288-2.53 0.975-0.618 2.060-0.927 3.255-0.927 1.006 0 1.887 0.175 2.642 0.526 0.77 0.351 1.423 0.835 1.958 1.453s0.944 1.328 1.227 2.129c0.283 0.785 0.425 1.636 0.425 2.555 0 0.234-0.016 0.476-0.047 0.726-0.016 0.25-0.055 0.468-0.118 0.651h-9.907v-2.505h8.161l-1.462 1.177c0.142-0.768 0.102-1.453-0.118-2.054-0.204-0.601-0.55-1.077-1.038-1.428-0.472-0.351-1.046-0.526-1.722-0.526-0.645 0-1.219 0.175-1.722 0.526-0.503 0.334-0.889 0.835-1.156 1.503-0.252 0.651-0.346 1.444-0.283 2.38-0.063 0.835 0.039 1.578 0.307 2.229 0.283 0.635 0.692 1.127 1.227 1.478 0.55 0.351 1.179 0.526 1.887 0.526s1.305-0.159 1.793-0.476c0.503-0.317 0.896-0.743 1.179-1.277l2.5 1.302c-0.252 0.651-0.645 1.227-1.179 1.728s-1.172 0.893-1.911 1.177c-0.723 0.284-1.525 0.426-2.406 0.426z"></path>
<path d="M63.986 25.595c-1.368 0-2.563-0.342-3.585-1.027-1.006-0.701-1.698-1.645-2.076-2.83l2.312-1.177c0.33 0.768 0.786 1.369 1.368 1.803 0.598 0.434 1.258 0.651 1.981 0.651 0.566 0 1.014-0.134 1.345-0.401s0.495-0.618 0.495-1.052c0-0.267-0.071-0.484-0.212-0.651-0.126-0.184-0.307-0.334-0.543-0.451-0.22-0.134-0.464-0.242-0.731-0.326l-2.099-0.626c-1.085-0.334-1.911-0.843-2.477-1.528-0.55-0.685-0.826-1.495-0.826-2.43 0-0.835 0.197-1.561 0.59-2.179 0.409-0.635 0.967-1.127 1.675-1.478 0.723-0.351 1.549-0.526 2.477-0.526 1.211 0 2.28 0.309 3.208 0.927s1.588 1.486 1.981 2.605l-2.359 1.177c-0.22-0.618-0.59-1.11-1.109-1.478s-1.101-0.551-1.746-0.551c-0.519 0-0.928 0.125-1.227 0.376s-0.448 0.576-0.448 0.977c0 0.25 0.063 0.468 0.189 0.651s0.299 0.334 0.519 0.451c0.236 0.117 0.503 0.225 0.802 0.326l2.052 0.651c1.054 0.334 1.863 0.835 2.43 1.503 0.582 0.668 0.873 1.486 0.873 2.455 0 0.818-0.204 1.545-0.613 2.179-0.409 0.618-0.975 1.102-1.698 1.453s-1.573 0.526-2.547 0.526z"></path>
<path d="M75.596 25.445c-1.447 0-2.572-0.417-3.373-1.252-0.786-0.852-1.179-2.046-1.179-3.582v-6.012h-2.217v-2.931h0.236c0.629 0 1.117-0.175 1.462-0.526s0.519-0.86 0.519-1.528v-1.052h3.090v3.106h2.948v2.931h-2.948v5.836c0 0.451 0.071 0.835 0.212 1.152 0.157 0.317 0.393 0.559 0.708 0.726 0.33 0.167 0.747 0.25 1.25 0.25 0.11 0 0.236-0.008 0.377-0.025 0.158-0.017 0.307-0.033 0.449-0.050v2.805c-0.22 0.033-0.472 0.067-0.755 0.1s-0.543 0.050-0.778 0.050z"></path>
<path d="M78.275 25.294v-18.661h7.407c1.164 0 2.154 0.217 2.972 0.651 0.833 0.417 1.471 1.019 1.911 1.804 0.456 0.768 0.684 1.703 0.684 2.805 0 0.852-0.22 1.653-0.66 2.405-0.425 0.735-1.109 1.344-2.052 1.829v-1.578c0.865 0.351 1.549 0.785 2.052 1.303s0.857 1.094 1.061 1.728c0.204 0.635 0.307 1.303 0.307 2.004 0 1.787-0.559 3.189-1.675 4.208-1.1 1.002-2.634 1.503-4.599 1.503h-7.407zM81.482 22.289h4.529c0.833 0 1.494-0.242 1.981-0.726 0.503-0.501 0.755-1.161 0.755-1.979s-0.252-1.478-0.755-1.979c-0.487-0.501-1.148-0.752-1.981-0.752h-4.529v5.436zM81.482 13.872h4.364c0.66 0 1.187-0.2 1.58-0.601 0.393-0.417 0.589-0.952 0.589-1.603s-0.196-1.169-0.589-1.553c-0.393-0.384-0.92-0.576-1.58-0.576h-4.364v4.333z"></path>
<path d="M96.742 25.595c-0.897 0-1.675-0.159-2.335-0.476s-1.172-0.768-1.533-1.353c-0.362-0.601-0.543-1.294-0.543-2.079 0-0.752 0.157-1.419 0.471-2.004 0.315-0.601 0.802-1.102 1.463-1.503s1.494-0.685 2.5-0.852l4.199-0.726v2.505l-3.609 0.651c-0.613 0.117-1.069 0.326-1.368 0.626s-0.448 0.693-0.448 1.177c0 0.468 0.165 0.843 0.495 1.127 0.345 0.267 0.77 0.401 1.273 0.401 0.645 0 1.211-0.142 1.698-0.426 0.503-0.301 0.889-0.71 1.156-1.227 0.283-0.518 0.424-1.085 0.424-1.703v-3.507c0-0.584-0.22-1.069-0.66-1.453-0.425-0.401-0.991-0.601-1.698-0.601-0.66 0-1.25 0.192-1.769 0.576-0.503 0.367-0.873 0.86-1.109 1.478l-2.524-1.302c0.252-0.718 0.644-1.336 1.18-1.854 0.55-0.534 1.195-0.952 1.934-1.252s1.541-0.451 2.406-0.451c1.054 0 1.982 0.209 2.783 0.626 0.802 0.401 1.423 0.969 1.864 1.703 0.456 0.718 0.684 1.561 0.684 2.53v9.067h-2.925v-2.329l0.661-0.050c-0.33 0.584-0.724 1.077-1.18 1.478-0.456 0.384-0.975 0.685-1.557 0.902-0.582 0.2-1.226 0.301-1.934 0.301z"></path>
<path d="M105.058 25.294v-13.626h2.901v2.68l-0.236-0.476c0.299-0.818 0.786-1.436 1.463-1.854 0.692-0.434 1.494-0.651 2.406-0.651 0.943 0 1.777 0.217 2.5 0.651 0.739 0.434 1.313 1.044 1.722 1.829 0.409 0.768 0.613 1.662 0.613 2.68v8.767h-3.090v-7.99c0-0.601-0.11-1.119-0.33-1.553s-0.527-0.768-0.92-1.002c-0.377-0.25-0.825-0.376-1.345-0.376-0.503 0-0.951 0.125-1.344 0.376-0.393 0.234-0.7 0.568-0.92 1.002s-0.33 0.952-0.33 1.553v7.99h-3.090z"></path>
<path d="M117.567 25.294v-18.961h3.089v12.424l-1.179-0.376 6.039-6.713h3.844l-4.741 5.486 4.836 8.141h-3.538l-4.199-7.064 1.84-0.401-3.868 4.409 0.967-2.004v5.060h-3.089z"></path>
</symbol>
<symbol id="icon-epicdev" viewBox="0 0 150 32">
<path d="M17.145 24.105l-17.144-7.836v7.836l17.144 7.836v-7.836z"></path>
<path d="M17.146 16.271l17.145-7.836v7.836l-17.145 7.836v-7.836z"></path>
<path d="M47.406 23.252v-18.101h14.851v3.044h-10.711v4.498h8.43v2.907h-8.43v4.607h11.131v3.044h-15.271z"></path>
<path d="M63.828 29.011v-19.472h3.69l0.27 4.361-0.51-0.494c0.18-0.804 0.51-1.517 0.99-2.139 0.5-0.622 1.13-1.106 1.89-1.454 0.76-0.366 1.61-0.549 2.55-0.549 1.22 0 2.31 0.283 3.27 0.85s1.71 1.38 2.25 2.441c0.56 1.042 0.84 2.313 0.84 3.812s-0.28 2.788-0.84 3.867c-0.56 1.060-1.33 1.874-2.31 2.441-0.96 0.567-2.060 0.85-3.3 0.85-1.32 0-2.42-0.338-3.3-1.015-0.86-0.676-1.45-1.527-1.77-2.551l0.39-0.576v9.626h-4.11zM71.419 20.646c1.1 0 1.96-0.357 2.58-1.070 0.64-0.731 0.96-1.792 0.96-3.181s-0.31-2.441-0.93-3.154c-0.6-0.731-1.45-1.097-2.55-1.097-0.7 0-1.32 0.174-1.86 0.521-0.52 0.329-0.93 0.814-1.23 1.454-0.3 0.622-0.45 1.38-0.45 2.276 0 0.859 0.14 1.618 0.42 2.276 0.28 0.64 0.68 1.134 1.2 1.481 0.54 0.329 1.16 0.494 1.86 0.494z"></path>
<path d="M82.565 7.564c-0.86 0-1.5-0.165-1.92-0.494-0.42-0.347-0.63-0.85-0.63-1.508 0-0.676 0.21-1.179 0.63-1.508 0.42-0.347 1.060-0.521 1.92-0.521s1.5 0.174 1.92 0.521c0.42 0.329 0.63 0.832 0.63 1.508 0 0.658-0.21 1.161-0.63 1.508-0.42 0.329-1.060 0.494-1.92 0.494zM84.605 9.539v13.713h-4.11v-13.713h4.11z"></path>
<path d="M93.629 9.265c1.341 0 2.471 0.183 3.39 0.549 0.94 0.347 1.69 0.832 2.25 1.454 0.58 0.603 0.99 1.28 1.23 2.029l-3.84 1.262c-0.2-0.823-0.541-1.444-1.021-1.865s-1.13-0.631-1.949-0.631c-0.76 0-1.411 0.165-1.95 0.494-0.54 0.311-0.95 0.795-1.23 1.454-0.28 0.64-0.42 1.444-0.42 2.413s0.141 1.773 0.42 2.413c0.3 0.64 0.72 1.115 1.26 1.426 0.56 0.311 1.21 0.466 1.95 0.466 0.6 0 1.11-0.091 1.53-0.274 0.42-0.201 0.76-0.484 1.020-0.85 0.28-0.366 0.471-0.804 0.57-1.316l3.72 1.097c-0.22 0.823-0.63 1.545-1.23 2.167s-1.37 1.106-2.31 1.453c-0.94 0.347-2.030 0.521-3.27 0.521-1.54 0-2.9-0.283-4.080-0.85s-2.090-1.38-2.731-2.441c-0.64-1.060-0.96-2.34-0.96-3.84s0.32-2.779 0.96-3.84c0.641-1.060 1.54-1.874 2.701-2.441s2.49-0.85 3.99-0.85z"></path>
<path d="M109.682 5.151c3.1 0 5.5 0.786 7.2 2.359 1.7 1.554 2.55 3.785 2.55 6.692 0 2.889-0.85 5.119-2.55 6.692s-4.1 2.359-7.2 2.359h-7.651v-18.101h7.651zM109.471 20.235c1.88 0 3.29-0.512 4.231-1.536 0.96-1.042 1.44-2.541 1.44-4.498s-0.48-3.446-1.44-4.47c-0.941-1.042-2.35-1.563-4.231-1.563h-3.3v12.067h3.3z"></path>
<path d="M127.992 23.526c-1.581 0-2.961-0.283-4.141-0.85-1.16-0.567-2.060-1.38-2.7-2.441s-0.96-2.34-0.96-3.84c0-1.499 0.32-2.779 0.96-3.84s1.53-1.874 2.669-2.441c1.16-0.567 2.481-0.85 3.96-0.85 1.52 0 2.81 0.283 3.87 0.85 1.060 0.549 1.87 1.307 2.43 2.276 0.56 0.951 0.84 2.039 0.84 3.264 0 0.366-0.009 0.713-0.029 1.042s-0.051 0.622-0.090 0.878h-11.971v-2.605h10.17l-1.98 0.658c0-1.152-0.29-2.039-0.87-2.66-0.56-0.622-1.36-0.932-2.4-0.932-0.76 0-1.421 0.165-1.981 0.494-0.54 0.329-0.95 0.823-1.23 1.481-0.28 0.64-0.419 1.454-0.419 2.441 0 0.969 0.15 1.773 0.45 2.413 0.32 0.622 0.76 1.088 1.32 1.399 0.579 0.311 1.27 0.466 2.070 0.466 0.88 0 1.59-0.155 2.13-0.466s0.961-0.741 1.261-1.289l3.27 1.152c-0.32 0.713-0.81 1.326-1.47 1.838-0.64 0.512-1.41 0.905-2.31 1.179-0.88 0.256-1.83 0.384-2.85 0.384z"></path>
<path d="M145.635 9.539h4.26l-5.7 13.713h-4.74l-5.7-13.713h4.41l3.69 10.833 3.78-10.833z"></path>
</symbol>
<symbol id="icon-marketsavy" viewBox="0 0 211 32">
<path d="M0 22.8c0-2.806 2.251-5.080 5.027-5.080s5.027 2.274 5.027 5.080v0.629c0 2.806-2.251 5.080-5.027 5.080s-5.027-2.274-5.027-5.080v-0.629z"></path>
<path d="M12.009 15.606c0-2.806 2.251-5.080 5.027-5.080s5.028 2.274 5.028 5.080v7.822c0 2.806-2.251 5.080-5.028 5.080s-5.027-2.274-5.027-5.080v-7.822z"></path>
<path d="M12.010 13.811c0-2.806 2.251-5.080 5.028-5.080s5.027 2.274 5.027 5.080v0.629c0 2.806-2.251 5.080-5.027 5.080s-5.028-2.274-5.028-5.080v-0.629z"></path>
<path d="M24.020 8.412c0-2.806 2.251-5.080 5.027-5.080s5.028 2.274 5.028 5.080v15.014c0 2.806-2.251 5.080-5.028 5.080s-5.027-2.274-5.027-5.080v-15.014z"></path>
<path d="M24.020 8.412c0-2.806 2.251-5.080 5.027-5.080s5.028 2.274 5.028 5.080v0.629c0 2.806-2.251 5.080-5.028 5.080s-5.027-2.274-5.027-5.080v-0.629z"></path>
<path d="M44.648 24.658v-24.267h4.191l8.994 12.345h-1.999l8.8-12.345h4.191v24.267h-4.416v-19.218l1.709 0.423-9.123 12.28h-0.516l-8.897-12.28 1.451-0.423v19.218h-4.384z"></path>
<path d="M76.371 25.049c-1.225 0-2.289-0.206-3.191-0.619s-1.601-0.999-2.095-1.759c-0.494-0.782-0.741-1.683-0.741-2.704 0-0.977 0.215-1.846 0.645-2.606 0.43-0.782 1.096-1.433 1.999-1.954s2.042-0.89 3.417-1.108l5.738-0.945v3.257l-4.932 0.847c-0.838 0.152-1.461 0.423-1.87 0.814s-0.612 0.901-0.612 1.531c0 0.608 0.226 1.097 0.677 1.466 0.473 0.348 1.053 0.521 1.741 0.521 0.881 0 1.655-0.185 2.321-0.554 0.688-0.391 1.214-0.923 1.579-1.596 0.387-0.673 0.58-1.412 0.58-2.215v-4.56c0-0.76-0.301-1.39-0.903-1.889-0.58-0.521-1.354-0.782-2.321-0.782-0.903 0-1.709 0.25-2.418 0.749-0.688 0.478-1.193 1.118-1.515 1.922l-3.449-1.694c0.344-0.934 0.881-1.737 1.612-2.41 0.752-0.695 1.633-1.238 2.643-1.629s2.106-0.586 3.288-0.586c1.44 0 2.708 0.271 3.804 0.814 1.096 0.521 1.945 1.259 2.547 2.215 0.623 0.934 0.935 2.030 0.935 3.29v11.792h-3.997v-3.029l0.903-0.065c-0.451 0.76-0.989 1.401-1.612 1.922-0.623 0.5-1.332 0.89-2.128 1.173-0.795 0.261-1.676 0.391-2.643 0.391z"></path>
<path d="M87.737 24.658v-17.72h3.965v3.941l-0.322-0.586c0.408-1.325 1.042-2.248 1.902-2.769 0.881-0.521 1.934-0.782 3.159-0.782h1.032v3.778h-1.515c-1.203 0-2.171 0.38-2.901 1.14-0.731 0.738-1.096 1.781-1.096 3.127v9.87h-4.223z"></path>
<path d="M97.779 24.658v-24.658h4.223v16.156l-1.612-0.489 8.252-8.73h5.255l-6.479 7.134 6.608 10.586h-4.835l-5.738-9.186 2.514-0.521-5.287 5.733 1.322-2.606v6.58h-4.223z"></path>
<path d="M122.372 25.049c-1.805 0-3.385-0.413-4.739-1.238s-2.407-1.944-3.159-3.355c-0.752-1.412-1.128-2.975-1.128-4.691 0-1.781 0.376-3.355 1.128-4.723 0.774-1.39 1.816-2.486 3.127-3.29 1.333-0.803 2.815-1.205 4.448-1.205 1.376 0 2.579 0.228 3.61 0.684 1.054 0.456 1.945 1.086 2.676 1.889 0.73 0.803 1.289 1.726 1.676 2.769 0.388 1.021 0.581 2.128 0.581 3.323 0 0.304-0.021 0.619-0.064 0.945-0.023 0.326-0.076 0.608-0.161 0.847h-13.54v-3.257h11.154l-1.999 1.531c0.194-0.999 0.14-1.889-0.161-2.671-0.279-0.782-0.751-1.401-1.417-1.857-0.645-0.456-1.429-0.684-2.354-0.684-0.881 0-1.665 0.228-2.353 0.684-0.689 0.434-1.215 1.086-1.58 1.954-0.344 0.847-0.473 1.878-0.387 3.095-0.086 1.086 0.054 2.052 0.419 2.899 0.386 0.825 0.946 1.466 1.676 1.922 0.753 0.456 1.612 0.684 2.579 0.684s1.784-0.206 2.45-0.619c0.689-0.413 1.225-0.966 1.612-1.661l3.418 1.694c-0.345 0.847-0.882 1.596-1.612 2.248-0.731 0.651-1.601 1.162-2.612 1.531-0.988 0.369-2.084 0.554-3.288 0.554z"></path>
<path d="M139.772 24.854c-1.977 0-3.513-0.543-4.609-1.629-1.075-1.108-1.612-2.66-1.612-4.658v-7.818h-3.031v-3.811h0.322c0.86 0 1.527-0.228 1.999-0.684 0.472-0.456 0.709-1.118 0.709-1.987v-1.368h4.223v4.039h4.030v3.811h-4.030v7.59c0 0.586 0.097 1.086 0.29 1.498 0.215 0.413 0.537 0.727 0.967 0.945 0.452 0.217 1.020 0.326 1.708 0.326 0.151 0 0.322-0.011 0.517-0.033 0.215-0.022 0.418-0.043 0.612-0.065v3.648c-0.3 0.043-0.645 0.087-1.031 0.13s-0.742 0.065-1.064 0.065z"></path>
<path d="M152.009 25.049c-1.527 0-2.944-0.282-4.255-0.847-1.289-0.565-2.407-1.346-3.353-2.345-0.924-1.021-1.601-2.204-2.031-3.551l3.643-1.596c0.58 1.39 1.419 2.486 2.514 3.29 1.096 0.782 2.332 1.173 3.707 1.173 0.774 0 1.44-0.119 1.999-0.358 0.58-0.261 1.020-0.608 1.321-1.042 0.322-0.434 0.484-0.956 0.484-1.564 0-0.717-0.216-1.303-0.645-1.759-0.409-0.478-1.032-0.847-1.87-1.107l-4.609-1.498c-1.87-0.586-3.278-1.466-4.223-2.638-0.946-1.173-1.419-2.552-1.419-4.137 0-1.39 0.333-2.617 0.999-3.681 0.687-1.064 1.633-1.889 2.837-2.476 1.224-0.608 2.622-0.912 4.191-0.912 1.439 0 2.761 0.261 3.964 0.782 1.203 0.499 2.235 1.205 3.095 2.117 0.882 0.89 1.537 1.944 1.966 3.16l-3.61 1.629c-0.473-1.216-1.182-2.15-2.127-2.801-0.946-0.673-2.042-1.010-3.288-1.010-0.731 0-1.376 0.13-1.934 0.391-0.559 0.239-1 0.586-1.323 1.042-0.3 0.434-0.45 0.955-0.45 1.564 0 0.673 0.215 1.27 0.645 1.792 0.429 0.499 1.084 0.89 1.966 1.173l4.416 1.401c1.913 0.63 3.342 1.498 4.288 2.606 0.967 1.108 1.451 2.476 1.451 4.104 0 1.39-0.356 2.617-1.064 3.681s-1.687 1.9-2.933 2.508c-1.247 0.608-2.697 0.912-4.352 0.912z"></path>
<path d="M167.098 25.049c-1.224 0-2.289-0.206-3.191-0.619-0.903-0.413-1.601-0.999-2.095-1.759-0.494-0.782-0.742-1.683-0.742-2.704 0-0.977 0.215-1.846 0.645-2.606 0.43-0.782 1.096-1.433 1.998-1.954 0.903-0.521 2.042-0.89 3.418-1.108l5.737-0.945v3.257l-4.932 0.847c-0.839 0.152-1.463 0.423-1.87 0.814-0.409 0.391-0.613 0.901-0.613 1.531 0 0.608 0.226 1.097 0.677 1.466 0.473 0.348 1.054 0.521 1.741 0.521 0.882 0 1.655-0.185 2.321-0.554 0.689-0.391 1.215-0.923 1.58-1.596 0.388-0.673 0.581-1.412 0.581-2.215v-4.56c0-0.76-0.301-1.39-0.903-1.889-0.58-0.521-1.353-0.782-2.321-0.782-0.903 0-1.709 0.25-2.418 0.749-0.687 0.478-1.192 1.118-1.515 1.922l-3.45-1.694c0.344-0.934 0.882-1.737 1.612-2.41 0.753-0.695 1.633-1.238 2.644-1.629 1.010-0.391 2.106-0.586 3.288-0.586 1.44 0 2.708 0.271 3.803 0.814 1.096 0.521 1.945 1.259 2.547 2.215 0.623 0.934 0.935 2.030 0.935 3.29v11.792h-3.998v-3.029l0.903-0.065c-0.452 0.76-0.988 1.401-1.612 1.922-0.623 0.5-1.332 0.89-2.127 1.173-0.795 0.261-1.677 0.391-2.644 0.391z"></path>
<path d="M183.436 24.658l-6.898-17.72h4.609l4.997 13.941h-1.709l5.030-13.941h4.609l-6.899 17.72h-3.739z"></path>
<path d="M196.521 31.857c-0.473 0-0.935-0.043-1.387-0.13-0.452-0.065-0.859-0.185-1.224-0.358v-3.583c0.279 0.065 0.612 0.13 0.999 0.195 0.408 0.065 0.785 0.098 1.128 0.098 0.967 0 1.665-0.228 2.095-0.684 0.45-0.456 0.849-1.053 1.192-1.792l1.16-2.736-0.064 3.583-7.64-19.512h4.545l5.351 14.397h-1.612l5.319-14.397h4.577l-7.64 19.512c-0.452 1.151-0.999 2.128-1.644 2.932s-1.397 1.412-2.257 1.824c-0.839 0.434-1.806 0.651-2.901 0.651z"></path>
</symbol>
</defs>
</svg>
