<svg aria-hidden="true" style="position: absolute; width: 0; height: 0; overflow: hidden;" version="1.1" xmlns="http://www.w3.org/2000/svg" xmlns:xlink="http://www.w3.org/1999/xlink">
<defs>
<symbol id="icon-star" viewBox="0 0 27 32">
<path d="M13.019 0.867l-1.504 9.584c-0.288 1.835-1.638 3.331-3.434 3.806l-7.531 1.991 7.582 1.696c1.809 0.405 3.199 1.846 3.537 3.67l1.767 9.52 1.504-9.584c0.288-1.836 1.638-3.331 3.435-3.806l7.531-1.991-7.582-1.696c-1.809-0.405-3.199-1.847-3.537-3.67l-1.767-9.52z"></path>
</symbol>
<symbol id="icon-arrow" viewBox="0 0 40 32">
<path d="M26.637 14.4l-8.534-8.582 2.25-2.263 12.374 12.445-12.374 12.444-2.25-2.263 8.534-8.582h-19.364v-3.2h19.364z"></path>
</symbol>
<symbol id="icon-client" viewBox="0 0 24 32">
<path d="M10.4 19.406v8.822h2.971v-8.822c5.863 0.731 10.4 5.733 10.4 11.794h-23.771c0-6.061 4.537-11.063 10.4-11.794zM11.886 17.829c-4.925 0-8.914-3.989-8.914-8.914s3.989-8.914 8.914-8.914c4.925 0 8.914 3.989 8.914 8.914s-3.989 8.914-8.914 8.914z"></path>
</symbol>
<symbol id="icon-hand-shake" viewBox="0 0 31 32">
<path d="M15.194 1.235c1.523-1.015 3.501-1.036 5.045-0.054l6.402 4.074h2.633c0.851 0 1.541 0.69 1.541 1.541v13.867c0 0.851-0.69 1.541-1.541 1.541h-2.341c0.092 1.46-0.596 2.943-1.979 3.773l-7.848 4.709c-0.991 0.594-2.221 0.581-3.191-0.012-1.079 0.954-2.74 1.059-3.945 0.112l-7.921-6.224c-1.181-0.928-1.479-2.513-0.87-3.769-0.745-0.584-1.18-1.478-1.18-2.425v-11.572c0-0.851 0.69-1.541 1.541-1.541h7.622l6.031-4.021zM3.348 18.575l1.066-0.933c1.895-1.659 4.77-1.494 6.464 0.369l4.163 4.58c1.34 1.474 1.584 3.639 0.61 5.373l7.717-4.63c0.434-0.26 0.59-0.78 0.429-1.218l-6.821-9.549c-0.383-0.536-1.065-0.77-1.697-0.58l-3.829 1.149c-1.629 0.489-3.394 0.043-4.597-1.159l-0.451-0.451c-0.875-0.875-1.101-2.121-0.733-3.189h-2.587v10.032l0.266 0.207zM18.585 3.781c-0.515-0.328-1.174-0.321-1.682 0.018l-8.322 5.548 0.451 0.451c0.401 0.401 0.989 0.549 1.532 0.386l3.829-1.149c1.894-0.568 3.94 0.131 5.090 1.741l5.961 8.346h2.289v-10.785h-1.092c-0.586 0-1.16-0.167-1.654-0.482l-6.402-4.074zM6.443 19.961l-2.489 2.178 7.921 6.224 1.085-1.898c0.331-0.58 0.252-1.307-0.198-1.801l-4.163-4.58c-0.565-0.621-1.523-0.676-2.155-0.123z"></path>
</symbol>
<symbol id="icon-stratagy" viewBox="0 0 33 32">
<path d="M12.855 8.889h7.111v-2.667c0-3.436 2.786-6.222 6.222-6.222s6.222 2.786 6.222 6.222c0 3.436-2.786 6.222-6.222 6.222h-2.667v7.111h2.667c3.436 0 6.222 2.786 6.222 6.222s-2.786 6.222-6.222 6.222-6.222-2.786-6.222-6.222v-2.667h-7.111v2.667c0 3.437-2.786 6.222-6.222 6.222s-6.222-2.786-6.222-6.222c0-3.436 2.786-6.222 6.222-6.222h2.667v-7.111h-2.667c-3.436 0-6.222-2.786-6.222-6.222s2.786-6.222 6.222-6.222c3.436 0 6.222 2.786 6.222 6.222v2.667zM9.299 8.889v-2.667c0-1.473-1.194-2.667-2.667-2.667s-2.667 1.194-2.667 2.667c0 1.473 1.194 2.667 2.667 2.667h2.667zM9.299 23.111h-2.667c-1.473 0-2.667 1.194-2.667 2.667s1.194 2.667 2.667 2.667 2.667-1.194 2.667-2.667v-2.667zM23.521 8.889h2.667c1.473 0 2.667-1.194 2.667-2.667s-1.194-2.667-2.667-2.667c-1.473 0-2.667 1.194-2.667 2.667v2.667zM23.521 23.111v2.667c0 1.473 1.194 2.667 2.667 2.667s2.667-1.194 2.667-2.667c0-1.473-1.194-2.667-2.667-2.667h-2.667zM12.855 12.444v7.111h7.111v-7.111h-7.111z"></path>
</symbol>
</defs>
</svg>
